<svg id="Layer_1" data-name="Layer 1" xmlns="http://www.w3.org/2000/svg" viewBox="0 0 286.22 484.51"><defs><style>.cls-1{fill:#bae5f8;}.cls-2{fill:#017fac;}.cls-3{fill:#fff;}.cls-4{fill:#daad7f;}.cls-5{fill:#cc9c72;}.cls-6{fill:#231f20;}.cls-7{fill:#e65364;}.cls-8{fill:#603813;}</style></defs><path class="cls-1" d="M434.29,386.46a174.31,174.31,0,0,0,127.76,38.4V326.68A195.16,195.16,0,0,1,434.29,386.46Z" transform="translate(-275.84 -55.38)"/><path class="cls-2" d="M421,365.47a174,174,0,0,0,141.09-72.19V198.5c0-78.72-64.39-143.12-143.11-143.12s-143.1,64.4-143.1,143.12v89A174.17,174.17,0,0,0,421,365.47Z" transform="translate(-275.84 -55.38)"/><path class="cls-2" d="M544.65,447.22a195.2,195.2,0,0,1-142.2-61.16,195.33,195.33,0,0,1-126.61-63.64v153a64.66,64.66,0,0,0,64.47,64.48H497.57a64.66,64.66,0,0,0,64.48-64.48v-29Q553.37,447.22,544.65,447.22Z" transform="translate(-275.84 -55.38)"/><path class="cls-3" d="M562.05,293.28a174,174,0,0,1-286.21-5.77v34.91a195.33,195.33,0,0,0,126.61,63.64,195.2,195.2,0,0,0,142.2,61.16q8.72,0,17.4-.78V424.86a174.31,174.31,0,0,1-127.76-38.4,195.16,195.16,0,0,0,127.76-59.78Z" transform="translate(-275.84 -55.38)"/><path class="cls-4" d="M418.9,327.35h0c-53.75,0-97.72-44-97.72-97.72V191.74c0-49.9,40.83-90.74,90.74-90.74h14c49.9,0,90.74,40.84,90.74,90.74v37.89C516.62,283.38,472.64,327.35,418.9,327.35Z" transform="translate(-275.84 -55.38)"/><path class="cls-4" d="M322.29,235.71c-11.48,0-20.8-10.43-20.8-23.29s9.32-23.29,20.8-23.29" transform="translate(-275.84 -55.38)"/><path class="cls-5" d="M322.29,225.62c-6.52,0-11.79-5.91-11.79-13.2s5.27-13.2,11.79-13.2" transform="translate(-275.84 -55.38)"/><path class="cls-4" d="M516.62,189.13c11.49,0,20.8,10.43,20.8,23.29s-9.31,23.29-20.8,23.29" transform="translate(-275.84 -55.38)"/><path class="cls-5" d="M516.62,199.22c6.51,0,11.79,5.91,11.79,13.2s-5.28,13.2-11.79,13.2" transform="translate(-275.84 -55.38)"/><path class="cls-6" d="M452.79,255.6H385a33.86,33.86,0,0,0,20,30.84,18.63,18.63,0,0,1,28-.11A33.83,33.83,0,0,0,452.79,255.6Z" transform="translate(-275.84 -55.38)"/><path class="cls-7" d="M419,280A18.72,18.72,0,0,0,405,286.44a33.18,33.18,0,0,0,28-.11A18.72,18.72,0,0,0,419,280Z" transform="translate(-275.84 -55.38)"/><path class="cls-3" d="M386,263.67a34.62,34.62,0,0,1-1-8.07h67.79a33.58,33.58,0,0,1-1,8.07" transform="translate(-275.84 -55.38)"/><path class="cls-6" d="M353.31,214a18.95,18.95,0,0,1,37.89,0" transform="translate(-275.84 -55.38)"/><path class="cls-6" d="M446.79,214a18.94,18.94,0,0,1,37.88,0" transform="translate(-275.84 -55.38)"/><path class="cls-8" d="M426.24,162.89a2.63,2.63,0,0,1-1.42-.41,2.69,2.69,0,0,1-.86-3.7,27,27,0,0,0-8.57-37.23,2.68,2.68,0,1,1,2.85-4.55,32.39,32.39,0,0,1,10.28,44.63A2.68,2.68,0,0,1,426.24,162.89Z" transform="translate(-275.84 -55.38)"/><path class="cls-5" d="M419,235.66h0a3.76,3.76,0,0,1-3.75-3.75V225a3.76,3.76,0,0,1,7.51,0v6.95A3.77,3.77,0,0,1,419,235.66Z" transform="translate(-275.84 -55.38)"/></svg>