<svg id="Layer_1" data-name="Layer 1" xmlns="http://www.w3.org/2000/svg" viewBox="0 0 393.29 468.09"><defs><style>.cls-1{fill:#bae5f8;}.cls-2{fill:#fff;}.cls-3{fill:#017fac;}.cls-4{fill:#231f20;}</style></defs><path class="cls-1" d="M350.47,180.05" transform="translate(-206 -67.39)"/><path class="cls-2" d="M542,386.57a184.82,184.82,0,0,0,46.07-130.74c-4.13-95.76-82.27-173.54-178-177.26A185.56,185.56,0,0,0,263.18,386.44a28.39,28.39,0,0,0,5.28,56.28h26.19l0,60.93a20.69,20.69,0,0,0,20.67,20.69l173.67.1a20.67,20.67,0,0,0,20.69-20.66l0-60.92,27.29,0a28.38,28.38,0,0,0,5-56.32Z" transform="translate(-206 -67.39)"/><path class="cls-3" d="M303.24,533a31.74,31.74,0,0,1-19.65-29.34l0-49.9H268.46a39.4,39.4,0,0,1-22.89-71.47A196.62,196.62,0,0,1,410.48,67.55c101.39,4,184.25,86.43,188.63,187.8a195.79,195.79,0,0,1-39.39,127A39.41,39.41,0,0,1,537,453.92l-16.26,0,0,49.9a31.7,31.7,0,0,1-31.73,31.68l-173.67-.11A31.48,31.48,0,0,1,303.24,533Zm2.45-101.28-.05,72a9.65,9.65,0,0,0,9.64,9.65l173.68.12a9.65,9.65,0,0,0,9.65-9.65l.05-71.95,38.32,0a17.36,17.36,0,0,0,3.07-34.44L520.83,394l12.91-14.66a173.87,173.87,0,0,0,43.33-123c-3.88-90-77.43-163.22-167.45-166.72A174.53,174.53,0,0,0,271.46,379.16l12.74,14.5-18.95,3.61a17.36,17.36,0,0,0,3.22,34.42Z" transform="translate(-206 -67.39)"/><path class="cls-3" d="M369.74,282.06a47.33,47.33,0,1,1-47.29-47.35A47.32,47.32,0,0,1,369.74,282.06Z" transform="translate(-206 -67.39)"/><path class="cls-3" d="M529,282.16a47.33,47.33,0,1,1-47.3-47.35A47.34,47.34,0,0,1,529,282.16Z" transform="translate(-206 -67.39)"/><path class="cls-3" d="M439.72,366.22l-20.46-20.48a23.63,23.63,0,0,0-33.33,0l-20.48,20.45a23.57,23.57,0,0,0,33.31,33.35l3.8-3.79,3.8,3.8a23.57,23.57,0,0,0,33.36-33.31Z" transform="translate(-206 -67.39)"/><path class="cls-3" d="M334.67,507.82h0a14.56,14.56,0,0,1-14.51-14.53l0-45.39a14.52,14.52,0,1,1,29,0l0,45.39A14.58,14.58,0,0,1,334.67,507.82Z" transform="translate(-206 -67.39)"/><path class="cls-3" d="M379.52,507.84h0A14.55,14.55,0,0,1,365,493.31l0-45.39a14.53,14.53,0,0,1,29.05,0l0,45.38A14.55,14.55,0,0,1,379.52,507.84Z" transform="translate(-206 -67.39)"/><path class="cls-3" d="M426.38,507.88h0a14.57,14.57,0,0,1-14.51-14.54l0-45.38a14.52,14.52,0,1,1,29,0l0,45.39A14.57,14.57,0,0,1,426.38,507.88Z" transform="translate(-206 -67.39)"/><path class="cls-3" d="M471.23,507.9h0a14.57,14.57,0,0,1-14.52-14.53l0-45.38a14.53,14.53,0,1,1,29.05,0l0,45.39A14.55,14.55,0,0,1,471.23,507.9Z" transform="translate(-206 -67.39)"/><line class="cls-4" x1="88.63" y1="403.18" x2="303.66" y2="403.32"/><rect class="cls-3" x="88.63" y="392.22" width="215.03" height="22.06"/></svg>